<svg width="24" height="24" viewBox="0 0 24 24" fill="currentColor" xmlns="http://www.w3.org/2000/svg">
<path d="M9.1875 8.58749H10.3125V17.5875H9.1875V8.58749Z" />
<path d="M11.4375 8.58749H12.5625V17.5875H11.4375V8.58749Z" />
<path d="M13.6875 8.58749H14.8125V17.5875H13.6875V8.58749Z" />
<path d="M4.6875 5.21249H19.3125V6.33749H4.6875V5.21249Z" />
<path d="M14.775 5.775H13.725V4.65C13.725 4.3125 13.4625 4.05 13.125 4.05H10.875C10.5375 4.05 10.275 4.3125 10.275 4.65V5.775H9.22501V4.65C9.22501 3.75 9.975 3 10.875 3H13.125C14.025 3 14.775 3.75 14.775 4.65V5.775Z" />
<path d="M15.375 20.9625H8.625C7.725 20.9625 6.9375 20.2125 6.8625 19.3125L5.8125 5.8125L6.9375 5.7375L7.9875 19.2375C8.025 19.575 8.325 19.8375 8.625 19.8375H15.375C15.7125 19.8375 16.0125 19.5375 16.0125 19.2375L17.0625 5.7375L18.1875 5.8125L17.1375 19.3125C17.0625 20.25 16.275 20.9625 15.375 20.9625Z" />
</svg>
