<svg width="24" height="24" viewBox="0 0 24 24" fill="currentColor" xmlns="http://www.w3.org/2000/svg">
<path d="M21.874 10.4832C21.8266 10.1708 21.6111 9.91015 21.3137 9.80467L19.7381 9.24444C19.6448 8.98045 19.5391 8.72381 19.4219 8.47554L20.139 6.96668C20.2743 6.68215 20.2422 6.34562 20.0553 6.09116C19.451 5.26924 18.7289 4.54717 17.9091 3.94562C17.6544 3.75865 17.319 3.72686 17.0338 3.86252L15.5258 4.57896C15.2775 4.46178 15.0205 4.3563 14.7563 4.2631L14.1958 2.68732C14.0903 2.3905 13.8303 2.17564 13.5185 2.12766C12.4109 1.95745 11.5911 1.95745 10.4817 2.12766C10.1703 2.17564 9.90994 2.3905 9.80445 2.68732L9.24396 4.2631C8.97972 4.3563 8.72272 4.46178 8.47467 4.57896L6.96605 3.86252C6.6815 3.72697 6.34553 3.75876 6.09105 3.94562C5.27125 4.54717 4.54914 5.26924 3.9448 6.09116C3.75782 6.34562 3.72579 6.68203 3.86112 6.96668L4.57818 8.47554C4.46099 8.72335 4.3555 8.98056 4.26207 9.24444L2.68618 9.80524C2.38901 9.91072 2.1739 10.1713 2.12615 10.4832C2.04017 11.0479 2 11.5294 2 12.0005C2 12.4708 2.04017 12.953 2.12615 13.5177C2.17355 13.8301 2.38901 14.0908 2.68641 14.1963L4.26207 14.7565C4.3555 15.021 4.46133 15.2777 4.57818 15.526L3.86112 17.0343C3.72579 17.3188 3.75793 17.6553 3.94457 17.9092C4.54811 18.7306 5.27022 19.4526 6.09105 20.0553C6.34553 20.2423 6.6815 20.2747 6.96628 20.1384L8.47433 19.422C8.72261 19.5392 8.97961 19.6447 9.24384 19.7379L9.80434 21.3136C9.90983 21.6104 10.1698 21.8253 10.4816 21.8733C11.0357 21.9587 11.5323 22 11.9999 22C12.4676 22 12.9643 21.9587 13.5183 21.8733C13.83 21.8253 14.0901 21.6104 14.1955 21.3136L14.756 19.7379C15.0203 19.6447 15.2773 19.5392 15.5256 19.422L17.0336 20.1384C17.3187 20.2746 17.6547 20.2422 17.9092 20.0553C18.7309 19.4516 19.453 18.7295 20.0554 17.9092C20.2421 17.6553 20.2742 17.3188 20.1389 17.0343L19.4218 15.526C19.539 15.2777 19.6447 15.0204 19.7379 14.7565L21.3136 14.1963C21.611 14.0908 21.8264 13.8303 21.8739 13.5177C21.9598 12.953 22 12.4709 22 12.0005C22 11.53 21.9599 11.0478 21.874 10.4832ZM20.2445 12.757L18.7663 13.2827C18.5079 13.3741 18.3092 13.5839 18.2314 13.8474C18.0994 14.2937 17.9256 14.7161 17.7144 15.1034C17.5833 15.3444 17.5752 15.6335 17.6929 15.8812L18.3634 17.2913C18.0395 17.6802 17.6812 18.039 17.2916 18.3626L15.8817 17.693C15.6337 17.5741 15.3455 17.5836 15.1041 17.7142C14.7162 17.9252 14.2936 18.0987 13.8468 18.2309C13.584 18.3085 13.3741 18.5071 13.2824 18.7655L12.7565 20.2441C12.2196 20.2988 11.7805 20.2988 11.2436 20.2441L10.7177 18.7655C10.6259 18.5077 10.416 18.3084 10.1533 18.2309C9.70631 18.0987 9.28333 17.9252 8.89605 17.7142C8.65465 17.5826 8.36585 17.5742 8.11838 17.693L6.70847 18.3632C6.31924 18.0389 5.961 17.6807 5.63673 17.2913L6.30719 15.8812C6.42496 15.6334 6.41681 15.3444 6.28572 15.1034C6.07509 14.7173 5.90119 14.2943 5.76873 13.8468C5.69091 13.5839 5.49199 13.3741 5.23383 13.2827L3.75563 12.757C3.72774 12.488 3.71431 12.2402 3.71431 12.0004C3.71431 11.7605 3.72774 11.5132 3.75563 11.2443L5.23418 10.7182C5.49221 10.6267 5.69091 10.4169 5.76873 10.154C5.90096 9.70768 6.07486 9.28472 6.28572 8.89689C6.41681 8.65643 6.42496 8.36673 6.30719 8.11962L5.63673 6.70958C5.96123 6.32014 6.31947 5.96134 6.70847 5.63767L8.11895 6.30786C8.36585 6.42677 8.6558 6.41724 8.89662 6.28662C9.28367 6.07566 9.70631 5.90212 10.1533 5.76989C10.4161 5.69231 10.626 5.49317 10.7177 5.23538L11.2436 3.7567C11.7754 3.70149 12.2154 3.70149 12.7565 3.7567L13.2824 5.23538C13.3743 5.49317 13.5841 5.69242 13.8468 5.76989C14.2938 5.90212 14.7168 6.07566 15.1041 6.28662C15.3455 6.41827 15.6337 6.42665 15.8817 6.30786L17.2916 5.63767C17.6806 5.96134 18.0389 6.32014 18.3634 6.70958L17.6929 8.11962C17.5752 8.36685 17.5833 8.65643 17.7144 8.89689C17.9259 9.28587 18.0997 9.70825 18.2314 10.1535C18.3092 10.4169 18.5079 10.6267 18.7663 10.7182L20.2445 11.2439C20.2724 11.5128 20.2858 11.7606 20.2858 12.0005C20.2858 12.2404 20.2724 12.488 20.2445 12.757Z"/>
<path d="M12.0001 7.83095C9.81203 7.83095 8.03183 9.61092 8.03183 11.7989C8.03183 13.9869 9.81191 15.7669 12.0001 15.7669C14.1882 15.7669 15.9683 13.9869 15.9683 11.7989C15.9683 9.61092 14.1881 7.83095 12.0001 7.83095ZM12.0001 14.0527C10.7573 14.0527 9.74614 13.0416 9.74614 11.7989C9.74614 10.5562 10.7573 9.54515 12.0001 9.54515C13.2428 9.54515 14.254 10.5562 14.254 11.7989C14.254 13.0416 13.2428 14.0527 12.0001 14.0527Z" />
</svg>
