<svg width="24" height="24" viewBox="0 0 24 24" fill="currentColor" xmlns="http://www.w3.org/2000/svg">
<path d="M11.5 7C11.2239 7 11 6.77614 11 6.5C11 6.22386 11.2239 6 11.5 6H13C14.1046 6 15 6.89543 15 8C15 9.10457 14.1046 10 13 10H5.5C5.22386 10 5 9.77614 5 9.5C5 9.22386 5.22386 9 5.5 9H13C13.5523 9 14 8.55228 14 8C14 7.44772 13.5523 7 13 7H11.5ZM17.5 10C17.2239 10 17 9.77614 17 9.5C17 9.22386 17.2239 9 17.5 9H19C20.1046 9 21 9.89543 21 11C21 12.1046 20.1046 13 19 13H3.5C3.22386 13 3 12.7761 3 12.5C3 12.2239 3.22386 12 3.5 12H19C19.5523 12 20 11.5523 20 11C20 10.4477 19.5523 10 19 10H17.5ZM7.5 16C7.22386 16 7 15.7761 7 15.5C7 15.2239 7.22386 15 7.5 15H15C16.1046 15 17 15.8954 17 17C17 18.1046 16.1046 19 15 19H13.5C13.2239 19 13 18.7761 13 18.5C13 18.2239 13.2239 18 13.5 18H15C15.5523 18 16 17.5523 16 17C16 16.4477 15.5523 16 15 16H7.5Z"/>
</svg>
