<svg width="24" height="24" viewBox="0 0 24 24" fill="currentColor" xmlns="http://www.w3.org/2000/svg">
<path d="M5 10.32C5 9.33 5.19 8.38 5.58 7.47C5.97 6.56 6.49 5.79 7.15 5.14C7.81 4.49 8.59 3.97 9.49 3.58C10.39 3.19 11.34 3 12.33 3C13.32 3 14.27 3.19 15.18 3.58C16.08 3.97 16.86 4.49 17.51 5.14C18.16 5.79 18.68 6.57 19.07 7.47C19.46 8.37 19.65 9.32 19.65 10.32C19.65 11.94 19.17 13.38 18.21 14.66C17.25 15.93 16.01 16.8 14.5 17.27V20.56H10.26V17.31C8.72 16.86 7.45 15.99 6.47 14.7C5.49 13.41 5 11.95 5 10.32ZM6.61 10.32C6.61 11.87 7.17 13.2 8.3 14.31C9.41 15.43 10.75 15.99 12.32 15.99C13.35 15.99 14.31 15.74 15.18 15.23C16.06 14.72 16.75 14.03 17.27 13.16C17.78 12.29 18.04 11.34 18.04 10.31C18.04 9.54 17.89 8.81 17.59 8.1C17.29 7.39 16.88 6.79 16.37 6.28C15.86 5.77 15.25 5.36 14.54 5.06C13.83 4.76 13.1 4.61 12.33 4.61C11.56 4.61 10.83 4.76 10.12 5.06C9.41 5.36 8.81 5.77 8.3 6.28C7.79 6.79 7.38 7.4 7.08 8.1C6.76 8.82 6.61 9.55 6.61 10.32ZM7.19 10.68V9.96H9.36V10.68H7.19ZM8.28 7.14L8.8 6.62L10.32 8.14L9.8 8.67L8.28 7.14ZM10.81 12.07C10.81 11.65 10.96 11.29 11.25 10.98C11.54 10.67 11.9 10.51 12.31 10.5L15.04 6.01L15.7 6.36L13.68 11.19C13.86 11.44 13.94 11.73 13.94 12.07C13.94 12.51 13.79 12.88 13.48 13.18C13.17 13.48 12.8 13.63 12.36 13.63C11.93 13.63 11.56 13.48 11.26 13.18C10.96 12.88 10.81 12.51 10.81 12.07ZM12.12 7.4V5.24H12.81V7.41H12.12V7.4ZM15.06 10.67V9.93H17.23V10.67H15.06Z"/>
</svg>
