<svg width="24" height="24" viewBox="0 0 24 24" fill="currentColor" xmlns="http://www.w3.org/2000/svg">
<path d="M21 7.5H3C2.80109 7.5 2.61032 7.42098 2.46967 7.28033C2.32902 7.13968 2.25 6.94891 2.25 6.75C2.25 6.55109 2.32902 6.36032 2.46967 6.21967C2.61032 6.07902 2.80109 6 3 6H21C21.1989 6 21.3897 6.07902 21.5303 6.21967C21.671 6.36032 21.75 6.55109 21.75 6.75C21.75 6.94891 21.671 7.13968 21.5303 7.28033C21.3897 7.42098 21.1989 7.5 21 7.5Z" />
<path d="M21 12.75H3C2.80109 12.75 2.61032 12.671 2.46967 12.5303C2.32902 12.3897 2.25 12.1989 2.25 12C2.25 11.8011 2.32902 11.6103 2.46967 11.4697C2.61032 11.329 2.80109 11.25 3 11.25H21C21.1989 11.25 21.3897 11.329 21.5303 11.4697C21.671 11.6103 21.75 11.8011 21.75 12C21.75 12.1989 21.671 12.3897 21.5303 12.5303C21.3897 12.671 21.1989 12.75 21 12.75Z" />
<path d="M21 18H3C2.80109 18 2.61032 17.921 2.46967 17.7803C2.32902 17.6397 2.25 17.4489 2.25 17.25C2.25 17.0511 2.32902 16.8603 2.46967 16.7197C2.61032 16.579 2.80109 16.5 3 16.5H21C21.1989 16.5 21.3897 16.579 21.5303 16.7197C21.671 16.8603 21.75 17.0511 21.75 17.25C21.75 17.4489 21.671 17.6397 21.5303 17.7803C21.3897 17.921 21.1989 18 21 18Z"/>
</svg>
